<?xml version="1.0" encoding="utf-8"?>
<!-- Generator: Adobe Illustrator 23.0.1, SVG Export Plug-In . SVG Version: 6.00 Build 0)  -->
<svg version="1.1" id="Ebene_1" xmlns="http://www.w3.org/2000/svg" xmlns:xlink="http://www.w3.org/1999/xlink" x="0px" y="0px"
	 viewBox="0 0 511.8 512" style="enable-background:new 0 0 511.8 512;" xml:space="preserve">
<style type="text/css">
	.st0{fill:#2246DC;}
</style>
<path class="st0" d="M0.8,237.8c2.4-15.5,10.7-27,24.9-34c3.5-1.9,5.6-3.5,6.4-7.8c6.2-33.4,19.5-63.9,39.4-91.6
	c2.4-3.2,4-5.3,1-9.3c-3.7-5.3-1-10.2,3-14.5c28.1-31.9,61.9-55.1,102-67.4c95.8-29.4,180.1-9.4,252.4,60.4
	c6.7,6.4,15.5,12.8,7,24.4c-1.3,1.8,1,3.5,2.2,5c20.7,28.1,34.2,59.4,40.4,93.7c0.8,3.7,3,5,5.9,6.4c17.4,8.8,25.7,23.3,26,42.3
	c0,17.2,1.8,34.5-1,51.7c-4,24.7-29.2,41.7-53.3,36.7c-7.2-1.6-9.4-7.2-9.4-14.2c0-28.1,0.8-56.4,0-84.6
	c-1.9-75.8-36.2-132.8-102.3-169.4C234.3,5,92.1,72.4,67.5,196.9c-6.1,30.4-1.7,48.3-3.7,125.8c-0.3,7.2-4.3,11.2-12,11.5
	C21,335.6,0,316,0,285.2v-20.9 M221.7,371.1c11.8-4.3,20.1-11.8,22.5-24.4c2.4-12.3-12-30-32.4-48.7c-20.9-19.2-48.2-39.1-63.4-46.6
	c-21.7-12-41.7-1.9-46.3,22.7c-5,26.2,0,51.4,14.5,73.9c10.2,15.5,25.4,22.7,43.4,24C171.7,372.8,212.6,374.3,221.7,371.1
	 M351.6,376.7c36.5,2.8,59.3-28.5,58.4-60.5c-2.1-45.2-66.2-16.5-87.8-8c-73.2,28.1-45,54.9-22.2,60.8 M449.2,367.6
	c-3-2.4-7.2-1-8.3,2.4c-8,25.4-44.7,112.5-172.1,121.5c-149.7,10.5,80.3,43.6,145.4-6.4c22.7-17.4,47.6-35,46.6-85.4
	C460.4,389.6,455.9,373,449.2,367.6"/>
</svg>
